#!OML:ASF E:\Steps\Project 1\Capture day 1\Session 2\Subject.ASF
:FULLY-SPECIFIED
:DEGREES
281
root 11.6704 18.8898 17.8053 -148.311 5.18615 176.433
lowerback -13.0529 -1.24315 -5.06346
upperback 3.05954 -0.644935 -1.00278
thorax 10.745 -0.574972 1.63325
lowerneck -1.89372 -3.97262 0.603422
upperneck 18.9408 -4.83343 2.96949
head 6.09951 -1.66271 0.605104
rclavicle 7.15625e-015 2.8625e-014
rhumerus -31.3973 -1.37418 -79.0193
rradius 38.814
rwrist -6.16257
rhand -10.0954 -43.1686
rfingers 7.12502
rthumb 15.8918 -72.5366
lclavicle 7.15625e-015 2.8625e-014
lhumerus -27.9327 -9.16796 77.6823
lradius 38.76
lwrist 3.42806
lhand -22.1068 -13.5752
lfingers 7.12502
lthumb 4.30563 16.361
rfemur -41.1039 3.13228 17.7322
rtibia 20.2912
rfoot -19.76 -7.26192
rtoes -3.67535
lfemur -47.7058 -14.6192 -20.2232
ltibia 40.0755
lfoot -15.6714 4.10488
ltoes -35.3381
282
root 11.7065 18.9023 17.7824 -148.485 5.06417 176.592
lowerback -13.5119 -1.28573 -5.2399
upperback 3.07656 -0.647623 -0.940274
thorax 11.0401 -0.596804 1.79395
lowerneck -1.43085 -3.84343 0.547773
upperneck 18.6773 -4.60617 2.82306
head 5.93085 -1.57498 0.590208
rclavicle -1.23246e-014 6.55989e-015
rhumerus -31.719 -1.36878 -79.2643
rradius 38.7077
rwrist -6.08056
rhand -9.52701 -43.8109
rfingers 7.12502
rthumb 16.4391 -73.1343
lclavicle -1.23246e-014 6.55989e-015
lhumerus -27.9761 -8.67016 77.6083
lradius 38.6013
lwrist 3.43958
lhand -22.1319 -13.9954
lfingers 7.12502
lthumb 4.28141 15.9414
rfemur -40.3663 3.16516 18.1111
rtibia 19.5075
rfoot -19.5377 -7.18596
rtoes -3.93453
lfemur -47.2985 -14.7846 -20.0348
ltibia 38.7713
lfoot -15.9203 3.95739
ltoes -35.3363
283
root 11.741 18.9122 17.7594 -148.577 4.90552 176.731
lowerback -13.8685 -1.31624 -5.36578
upperback 3.1119 -0.648575 -0.876368
thorax 11.2947 -0.614762 1.92951
lowerneck -1.72321 -3.76514 0.211744
upperneck 18.911 -4.51449 3.03997
head 6.06652 -1.52763 0.71427
rclavicle -5.1684e-015 7.35503e-015
rhumerus -31.8079 -1.37659 -79.4874
rradius 38.5206
rwrist -6.15108
rhand -9.4961 -44.2924
rfingers 7.12502
rthumb 16.4688 -73.6134
lclavicle -5.1684e-015 7.35503e-015
lhumerus -27.8817 -8.11685 77.6201
lradius 38.5376
lwrist 3.22433
lhand -22.4991 -13.9221
lfingers 7.12502
lthumb 3.92677 16.0214
rfemur -39.7518 3.03605 18.5323
rtibia 18.7789
rfoot -19.2652 -7.04011
rtoes -4.00793
lfemur -47.0007 -14.9429 -19.8427
ltibia 37.5705
lfoot -15.9889 3.87759
ltoes -36.2025
284
root 11.771 18.9168 17.7377 -148.563 4.83734 176.866
lowerback -14.3767 -1.3063 -5.40381
upperback 3.0266 -0.589037 -0.925138
thorax 11.4949 -0.588904 1.90731
lowerneck -2.12582 -3.69933 0.677782
upperneck 19.3672 -4.3991 2.72465
head 6.26139 -1.43748 0.53777
rclavicle -1.95803e-014 -7.35503e-015
rhumerus -32.2778 -1.28101 -79.8835
rradius 38.6913
rwrist -6.35574
rhand -9.97507 -45.013
rfingers 7.12502
rthumb 16.0077 -74.3717
lclavicle -1.95803e-014 -7.35503e-015
lhumerus -28.0084 -7.75236 77.5749
lradius 38.4905
lwrist 3.0363
lhand -22.8616 -13.6565
lfingers 7.12502
lthumb 3.57674 16.2933
rfemur -39.3742 2.87332 18.9328
rtibia 18.24
rfoot -18.9622 -6.79561
rtoes -4.35735
lfemur -46.8379 -14.9706 -19.7206
ltibia 36.4645
lfoot -15.8841 3.87204
ltoes -38.0319
285
root 11.8005 18.9214 17.7169 -148.586 4.66854 177.018
lowerback -14.683 -1.34728 -5.49321
upperback 2.92975 -0.614154 -0.884236
thorax 11.5708 -0.608601 1.99438
lowerneck -2.47465 -3.64977 0.764579
upperneck 19.828 -4.32124 2.70239
head 6.46569 -1.36983 0.515936
rclavicle 0 -5.56597e-015
rhumerus -32.7377 -1.16661 -80.1862
rradius 38.8004
rwrist -6.52475
rhand -9.98757 -45.2065
rfingers 7.12502
rthumb 15.9956 -74.5661
lclavicle 0 -5.56597e-015
lhumerus -27.981 -7.27504 77.5241
lradius 38.2086
lwrist 3.0307
lhand -23.037 -13.6971
lfingers 7.12502
lthumb 3.40734 16.2554
rfemur -38.9369 2.68661 19.3547
rtibia 17.6613
rfoot -18.6431 -6.55016
rtoes -4.22621
lfemur -46.6494 -15.1258 -19.4762
ltibia 35.2935
lfoot -15.5935 3.66195
ltoes -38.5794
286
root 11.8342 18.9282 17.6969 -148.684 4.47265 177.14
lowerback -14.8285 -1.42052 -5.67431
upperback 2.80323 -0.678568 -0.823307
thorax 11.5235 -0.650333 2.14775
lowerneck -2.36542 -3.56402 0.562288
upperneck 20.023 -4.1863 2.90552
head 6.51633 -1.28676 0.625745
rclavicle 5.96354e-016 8.54774e-015
rhumerus -33.0258 -1.23431 -80.4406
rradius 38.4665
rwrist -6.34996
rhand -10.2288 -44.1682
rfingers 7.12502
rthumb 15.7634 -73.5463
lclavicle 5.96354e-016 8.54774e-015
lhumerus -28.0775 -6.61891 77.4172
lradius 38.0389
lwrist 2.98991
lhand -23.1482 -13.6031
lfingers 7.12502
lthumb 3.29999 16.3511
rfemur -38.3986 2.61178 19.7088
rtibia 17.0818
rfoot -18.4407 -6.43287
rtoes -4.16483
lfemur -46.3547 -15.3264 -19.2083
ltibia 34.1144
lfoot -15.3489 3.25453
ltoes -38.6945
287
root 11.8667 18.9305 17.6745 -148.773 4.34006 177.221
lowerback -15.0138 -1.47512 -5.88712
upperback 2.61226 -0.708421 -0.77151
thorax 11.4247 -0.673954 2.31812
lowerneck -1.90291 -3.72042 0.30197
upperneck 20.0895 -4.3486 3.02126
head 6.46772 -1.36282 0.704389
rclavicle 7.35503e-015 -8.54774e-015
rhumerus -33.3827 -1.20714 -80.6815
rradius 38.2939
rwrist -6.08219
rhand -10.3245 -44.8784
rfingers 7.12502
rthumb 15.6711 -74.2637
lclavicle 7.35503e-015 -8.54774e-015
lhumerus -28.5382 -6.0891 77.4122
lradius 38.2165
lwrist 3.05988
lhand -23.1854 -13.3332
lfingers 7.12502
lthumb 3.26408 16.6215
rfemur -37.9132 2.5565 20.009
rtibia 16.6061
rfoot -18.4328 -6.36773
rtoes -4.4935
lfemur -46.0328 -15.4005 -19.0634
ltibia 33.0167
lfoot -15.0943 2.56417
ltoes -37.7881
288
root 11.8954 18.9294 17.6518 -148.871 4.20428 177.25
lowerback -15.2673 -1.51376 -6.00352
upperback 2.50007 -0.717436 -0.785278
thorax 11.4504 -0.681966 2.36541
lowerneck -2.6065 -3.60326 0.822791
upperneck 20.8345 -4.11062 2.39607
head 6.80171 -1.22054 0.423113
rclavicle -5.56597e-015 -2.34566e-014
rhumerus -33.7754 -1.15101 -80.9367
rradius 38.1589
rwrist -6.22256
rhand -10.0537 -45.2449
rfingers 7.12502
rthumb 15.9319 -74.6096
lclavicle -5.56597e-015 -2.34566e-014
lhumerus -28.8152 -5.7717 77.364
lradius 38.353
lwrist 3.2847
lhand -23.1929 -13.1724
lfingers 7.12502
lthumb 3.25681 16.7825
rfemur -37.4383 2.42576 20.2606
rtibia 16.1785
rfoot -18.4203 -6.20092
rtoes -3.36711
lfemur -45.6961 -15.5096 -18.979
ltibia 31.9429
lfoot -14.5804 1.72285
ltoes -35.8058
289
root 11.9227 18.9282 17.6277 -149.043 4.11256 177.217
lowerback -15.5753 -1.60881 -6.20058
upperback 2.5593 -0.772827 -0.810839
thorax 11.7089 -0.726128 2.43008
lowerneck -2.16714 -3.60223 0.0973465
upperneck 20.248 -4.20699 3.19949
head 6.57062 -1.28752 0.800617
rclavicle -2.22639e-014 -3.06128e-014
rhumerus -33.9346 -0.892275 -81.2721
rradius 38.1736
rwrist -6.27903
rhand -9.19293 -45.0549
rfingers 7.12502
rthumb 16.7607 -74.3515
lclavicle -2.22639e-014 -3.06128e-014
lhumerus -28.7826 -5.12966 77.1943
lradius 38.3915
lwrist 3.32167
lhand -23.321 -13.0234
lfingers 7.12502
lthumb 3.13314 16.9334
rfemur -36.8871 2.42128 20.3511
rtibia 15.7649
rfoot -18.455 -6.15705
rtoes -1.55947
lfemur -45.2156 -15.6353 -18.9987
ltibia 30.9016
lfoot -13.9211 0.918123
ltoes -35.2952
290
root 11.9483 18.9257 17.6028 -149.115 4.09785 177.287
lowerback -15.8389 -1.48106 -6.17016
upperback 2.77674 -0.54603 -1.03088
thorax 12.089 -0.618948 2.22291
lowerneck -3.77455 -3.6457 1.21448
upperneck 21.0251 -4.35584 2.64663
head 7.06993 -1.29336 0.40153
rclavicle -7.55382e-015 -3.18055e-015
rhumerus -33.6036 -1.40255 -81.7449
rradius 38.09
rwrist -6.05153
rhand -9.3385 -44.8966
rfingers 7.12502
rthumb 16.6206 -74.205
lclavicle -7.55382e-015 -3.18055e-015
lhumerus -28.2002 -4.99432 76.8655
lradius 38.4908
lwrist 3.49508
lhand -23.4811 -12.8489
lfingers 7.12502
lthumb 2.97848 17.11
rfemur -36.5112 2.55264 20.4999
rtibia 15.4503
rfoot -18.6026 -6.24608
rtoes -1.32538
lfemur -44.8588 -15.7525 -18.8101
ltibia 30.0153
lfoot -13.3348 -0.0684594
ltoes -34.115
291
root 11.9724 18.9235 17.5793 -149.228 4.03856 177.352
lowerback -16.2733 -1.54305 -6.22382
upperback 2.74839 -0.577809 -1.05454
thorax 12.3177 -0.639991 2.21434
lowerneck -3.22284 -3.42576 0.956549
upperneck 20.5767 -4.04026 2.82717
head 6.83325 -1.16431 0.533009
rclavicle -3.97569e-016 -1.82882e-014
rhumerus -33.7977 -1.52861 -81.8756
rradius 37.8058
rwrist -5.90941
rhand -9.87333 -43.6488
rfingers 7.12502
rthumb 16.1056 -72.9995
lclavicle -3.97569e-016 -1.82882e-014
lhumerus -28.3917 -4.3441 76.752
lradius 38.5146
lwrist 3.66737
lhand -23.379 -12.9796
lfingers 7.12502
lthumb 3.07706 16.9779
rfemur -36.119 2.52354 20.703
rtibia 15.1903
rfoot -18.7435 -6.12292
rtoes -0.966659
lfemur -44.501 -16.0329 -18.4741
ltibia 29.2718
lfoot -12.5973 -0.962924
ltoes -32.3565
292
root 11.9976 18.9226 17.5574 -149.481 3.95557 177.326
lowerback -16.5012 -1.60051 -6.41138
upperback 2.69023 -0.59252 -1.07174
thorax 12.3916 -0.658097 2.29586
lowerneck -3.82928 -3.54877 1.24722
upperneck 21.5559 -4.12449 2.38922
head 7.2439 -1.16501 0.330722
rclavicle 3.57812e-015 -6.36111e-015
rhumerus -34.1725 -1.67974 -82.0019
rradius 37.8419
rwrist -5.92881
rhand -9.85203 -43.9627
rfingers 7.12502
rthumb 16.1261 -73.3118
lclavicle 3.57812e-015 -6.36111e-015
lhumerus -28.5395 -3.74169 76.6743
lradius 38.2807
lwrist 3.69542
lhand -23.2256 -13.2915
lfingers 7.12502
lthumb 3.22519 16.6639
rfemur -35.6024 2.37704 20.8485
rtibia 14.949
rfoot -18.8109 -5.94132
rtoes -0.35136
lfemur -44.0048 -16.2605 -18.294
ltibia 28.7694
lfoot -11.6992 -1.49431
ltoes -32.5941
293
root 12.0237 18.9201 17.5371 -149.61 3.95599 177.366
lowerback -16.7125 -1.62295 -6.59121
upperback 2.51175 -0.568618 -1.07525
thorax 12.3131 -0.651155 2.4011
lowerneck -3.23873 -3.50602 1.00615
upperneck 21.4424 -4.01731 2.57458
head 7.11013 -1.11016 0.448962
rclavicle -1.70955e-014 -3.10104e-014
rhumerus -34.6993 -1.82388 -82.143
rradius 37.9005
rwrist -6.07656
rhand -9.64627 -44.2615
rfingers 7.12502
rthumb 16.3243 -73.5944
lclavicle -1.70955e-014 -3.10104e-014
lhumerus -28.8405 -3.30243 76.6133
lradius 38.1254
lwrist 3.77108
lhand -23.2155 -13.7142
lfingers 7.12502
lthumb 3.23495 16.241
rfemur -35.3121 2.39394 21.028
rtibia 14.8256
rfoot -18.8341 -5.8716
rtoes -0.477541
lfemur -43.6743 -16.2376 -18.11
ltibia 28.5012
lfoot -10.7973 -1.72869
ltoes -32.5281
294
root 12.0471 18.9172 17.5155 -149.722 3.95624 177.455
lowerback -16.988 -1.67075 -6.70333
upperback 2.40773 -0.587533 -1.05945
thorax 12.3607 -0.665804 2.47575
lowerneck -3.07291 -3.54019 0.950856
upperneck 21.4481 -4.05043 2.6257
head 7.08524 -1.12162 0.475425
rclavicle 7.95139e-016 -1.39149e-014
rhumerus -35.0901 -1.70621 -82.3704
rradius 38.0051
rwrist -6.31071
rhand -9.13301 -44.5949
rfingers 7.12502
rthumb 16.8184 -73.8865
lclavicle 7.95139e-016 -1.39149e-014
lhumerus -29.0571 -2.67305 76.5314
lradius 38.0536
lwrist 3.84577
lhand -23.2481 -14.0755
lfingers 7.12502
lthumb 3.20353 15.8802
rfemur -35.0477 2.42924 21.2547
rtibia 14.7633
rfoot -18.9106 -5.76632
rtoes -0.721909
lfemur -43.2345 -16.0975 -17.9338
ltibia 28.0667
lfoot -9.82925 -1.70745
ltoes -31.2498
